<?xml version="1.0" standalone="no"?>
<!DOCTYPE svg PUBLIC "-//W3C//DTD SVG 20010904//EN"
 "http://www.w3.org/TR/2001/REC-SVG-20010904/DTD/svg10.dtd">
<svg version="1.0" xmlns="http://www.w3.org/2000/svg"
 width="500.000000pt" height="500.000000pt" viewBox="0 0 500.000000 500.000000"
 preserveAspectRatio="xMidYMid meet">
<metadata>
Created by potrace 1.14, written by Peter Selinger 2001-2017
</metadata>
<g transform="translate(0.000000,500.000000) scale(0.100000,-0.100000)"
fill="#000000" stroke="none">
<path d="M2476 4778 c-8 -12 -12 -26 -9 -31 4 -6 -4 -7 -20 -3 -28 7 -47 -8
-22 -18 8 -3 15 -14 15 -25 0 -11 7 -24 15 -28 8 -5 11 -13 6 -21 -6 -10 -15
-9 -45 3 -44 19 -56 13 -37 -17 9 -14 10 -23 2 -31 -13 -13 -14 -47 -1 -67 7
-12 12 -12 29 4 15 14 23 15 40 6 33 -17 29 -81 -7 -121 -48 -54 -110 -36
-131 39 -8 26 -7 32 5 32 13 0 13 2 -1 16 -19 19 -14 40 9 38 9 -1 16 4 16 10
0 22 -13 26 -30 11 -16 -15 -17 -14 -17 10 0 30 -22 75 -36 75 -13 0 -2 -77
13 -96 12 -13 10 -14 -13 -9 -24 6 -27 4 -26 -16 0 -13 3 -18 6 -11 10 24 31
11 47 -28 27 -68 18 -102 -33 -129 -20 -11 -27 -10 -50 6 -32 24 -40 72 -16
89 15 12 15 15 -6 43 -17 24 -26 28 -36 20 -7 -6 -13 -21 -13 -33 0 -17 -2
-18 -10 -6 -5 8 -10 29 -10 46 0 32 -30 70 -37 47 -3 -8 -11 -7 -31 3 -34 18
-47 18 -61 0 -10 -11 -8 -16 8 -21 47 -14 130 -127 162 -219 8 -21 20 -41 26
-43 9 -3 5 -11 -10 -23 -19 -16 -20 -19 -5 -25 9 -4 25 -2 36 4 104 56 483 58
597 4 38 -18 55 -12 35 12 -7 8 -8 15 -2 15 5 0 19 26 32 59 31 83 95 178 142
209 39 25 39 27 18 36 -14 7 -31 6 -50 -1 -19 -7 -32 -7 -38 -1 -11 11 -44
-32 -41 -54 3 -28 -1 -48 -12 -48 -5 0 -8 4 -5 9 3 5 -3 20 -14 32 -13 16 -19
19 -20 10 0 -8 -9 -25 -21 -37 -21 -22 -21 -22 -1 -33 40 -21 5 -101 -44 -101
-40 0 -75 49 -67 93 4 20 10 26 21 22 12 -4 12 -2 4 8 -7 8 -10 16 -8 18 7 6
17 56 23 114 5 45 4 49 -10 37 -8 -7 -19 -31 -22 -54 -5 -29 -10 -37 -18 -29
-15 15 -24 14 -31 -4 -4 -11 0 -15 11 -13 25 4 29 -33 7 -50 -18 -14 -18 -14
-1 -8 16 5 18 2 12 -27 -9 -47 -58 -89 -93 -81 -39 9 -71 42 -78 80 -12 63 21
101 58 67 19 -17 20 -17 33 1 12 16 12 24 0 52 -8 20 -10 36 -4 39 5 4 9 16 8
28 0 12 -3 16 -6 10 -2 -7 -12 -13 -22 -13 -9 0 -22 -5 -29 -12 -9 -9 -16 -8
-29 5 -16 16 -16 17 0 17 11 0 17 8 17 22 0 12 8 30 18 41 17 19 16 20 -10 13
-23 -5 -30 -2 -43 24 -19 36 -20 36 -39 8z m-99 -444 c-3 -3 -12 -4 -19 -1 -8
3 -5 6 6 6 11 1 17 -2 13 -5z m66 -1 c-7 -2 -19 -2 -25 0 -7 3 -2 5 12 5 14 0
19 -2 13 -5z m120 0 c-7 -2 -19 -2 -25 0 -7 3 -2 5 12 5 14 0 19 -2 13 -5z
m50 0 c-7 -2 -19 -2 -25 0 -7 3 -2 5 12 5 14 0 19 -2 13 -5z m84 -9 c-3 -3
-12 -4 -19 -1 -8 3 -5 6 6 6 11 1 17 -2 13 -5z m-472 -14 c-3 -5 -12 -10 -18
-10 -7 0 -6 4 3 10 19 12 23 12 15 0z m579 -9 c4 -5 -3 -7 -14 -4 -23 6 -26
13 -6 13 8 0 17 -4 20 -9z"/>
<path d="M2746 4563 c-5 -6 18 -33 28 -33 3 0 6 6 6 14 0 15 -24 28 -34 19z"/>
<path d="M2417 4275 c-1 -2 -33 -5 -72 -8 -38 -4 -90 -12 -115 -20 -38 -11
-45 -17 -48 -41 -3 -28 -2 -29 30 -22 169 36 445 38 560 5 47 -13 58 -11 58
10 0 27 -18 38 -86 56 -47 11 -316 28 -327 20z"/>
<path d="M2323 4162 c-35 -5 -73 -51 -73 -87 0 -67 88 -102 128 -50 24 30 19
59 -14 74 -29 13 -54 5 -54 -19 0 -23 22 -31 37 -14 10 10 9 13 -5 16 -11 2
-13 6 -6 10 6 4 19 1 29 -6 25 -18 13 -64 -19 -72 -56 -14 -102 50 -68 95 72
97 228 -7 181 -121 -31 -75 -120 -129 -225 -136 -90 -6 -161 14 -274 76 -177
98 -248 122 -337 117 -59 -4 -146 -37 -188 -73 -129 -109 -110 -287 40 -364
21 -11 48 -31 58 -44 42 -54 93 -64 205 -40 41 9 76 11 100 5 20 -4 38 -6 41
-3 11 10 -24 53 -55 67 -40 19 -41 25 -14 77 29 57 26 107 -10 163 -37 58 -45
60 -20 5 45 -98 5 -194 -102 -249 -47 -24 -113 -32 -127 -16 -7 9 0 12 22 11
44 -1 110 23 135 49 23 25 49 84 46 107 -1 8 -2 24 -3 36 0 12 -15 40 -31 63
-32 44 -30 44 -75 3 -8 -7 -15 -19 -15 -25 0 -8 3 -8 11 0 15 15 83 -17 93
-42 20 -54 -14 -127 -74 -157 -37 -18 -130 -24 -130 -9 0 17 20 23 35 11 11
-10 15 -10 15 -1 0 7 5 9 10 6 15 -9 12 2 -6 19 -22 23 -59 20 -76 -6 -15 -22
-15 -22 -44 -3 -85 55 -120 156 -81 231 33 63 134 136 184 133 11 0 8 -4 -9
-9 -43 -13 -84 -41 -100 -69 -24 -41 -2 -79 34 -60 22 12 23 23 3 42 -13 14
-11 18 16 41 32 27 35 28 169 31 84 1 86 1 205 -56 141 -68 220 -90 319 -90
198 0 341 153 260 278 -24 38 -90 64 -141 55z m-645 -169 c-10 -2 -28 -2 -40
0 -13 2 -5 4 17 4 22 1 32 -1 23 -4z m49 -9 c-3 -3 -12 -4 -19 -1 -8 3 -5 6 6
6 11 1 17 -2 13 -5z"/>
<path d="M2610 4160 c-91 -26 -129 -115 -85 -201 19 -37 70 -78 132 -106 39
-18 69 -24 126 -24 102 -1 189 23 320 88 l112 56 110 0 c84 1 117 -3 142 -16
39 -21 49 -35 34 -50 -28 -28 -3 -63 32 -45 52 27 -14 106 -108 129 -27 6 -28
7 -5 8 41 1 124 -43 158 -85 38 -45 56 -104 48 -149 -8 -42 -58 -110 -99 -135
l-32 -20 -8 25 c-6 18 -16 25 -35 25 -34 -1 -70 -25 -48 -33 8 -3 23 -3 34 -1
12 4 22 0 25 -10 5 -13 -2 -16 -40 -16 -87 0 -158 53 -170 125 -5 30 -1 39 27
65 18 16 43 30 56 30 30 0 31 14 2 34 -33 23 -41 20 -72 -26 -69 -107 11 -241
145 -242 39 -1 51 -9 26 -19 -22 -8 -89 4 -127 23 -99 51 -140 157 -95 246 21
41 21 44 3 27 -27 -24 -50 -71 -55 -109 -3 -32 19 -98 37 -109 20 -12 9 -30
-34 -56 -46 -28 -72 -75 -35 -64 38 12 85 12 135 -1 94 -25 153 -13 195 40 11
13 39 34 63 46 76 37 126 121 121 203 -9 123 -135 227 -282 232 -79 3 -149
-21 -304 -103 -64 -34 -136 -68 -160 -75 -67 -20 -162 -21 -221 -1 -60 20
-147 99 -149 136 -5 78 16 115 79 138 37 13 45 12 76 -3 59 -27 59 -108 1
-123 -28 -7 -75 18 -75 40 0 22 34 46 50 36 12 -8 11 -10 -5 -10 -14 0 -16 -3
-8 -11 13 -13 43 -5 43 10 0 6 -9 15 -21 21 -28 15 -69 -11 -69 -45 0 -72 129
-71 143 2 13 69 -58 124 -133 103z m733 -167 c-7 -2 -19 -2 -25 0 -7 3 -2 5
12 5 14 0 19 -2 13 -5z m44 1 c-3 -3 -12 -4 -19 -1 -8 3 -5 6 6 6 11 1 17 -2
13 -5z m-90 -10 c-3 -3 -12 -4 -19 -1 -8 3 -5 6 6 6 11 1 17 -2 13 -5z"/>
<path d="M1876 4094 c-22 -21 -20 -42 6 -80 28 -41 99 -89 173 -116 45 -16 84
-22 155 -22 83 -1 102 2 145 25 87 44 122 134 75 190 -10 13 -19 19 -20 12 0
-6 5 -15 10 -18 19 -12 10 -47 -20 -77 -28 -27 -34 -29 -92 -26 -60 3 -63 2
-61 -20 3 -22 2 -22 -26 -7 -17 8 -37 25 -45 37 -14 19 -14 25 -1 44 8 12 12
24 9 27 -12 12 -60 -12 -74 -36 -14 -25 -13 -30 5 -64 11 -21 38 -48 60 -60
l40 -23 -40 5 c-50 7 -151 56 -189 91 -16 15 -40 51 -53 81 -26 57 -33 62 -57
37z"/>
<path d="M2568 4099 c-25 -14 -32 -69 -15 -111 42 -101 173 -141 336 -103 159
38 286 156 229 213 -20 20 -33 14 -46 -22 -25 -68 -67 -113 -144 -150 -40 -19
-91 -37 -113 -40 l-40 -5 37 19 c46 25 78 65 78 99 0 35 -10 48 -44 61 -33 12
-44 7 -27 -14 26 -31 -10 -83 -69 -101 -20 -6 -23 -5 -12 6 6 7 12 19 12 27 0
11 -11 13 -53 8 -65 -8 -97 3 -119 41 -15 26 -15 33 -3 56 8 15 13 27 12 27
-1 0 -10 -5 -19 -11z"/>
<path d="M1310 3808 c-30 -72 -38 -80 -61 -67 -23 12 -26 41 -4 33 18 -7 20
11 3 22 -15 10 -37 -23 -31 -46 3 -12 18 -23 36 -28 24 -6 31 -14 34 -37 2
-17 20 -65 40 -108 20 -42 36 -84 36 -92 0 -13 4 -12 19 2 13 11 17 25 14 39
-4 14 0 29 10 38 14 14 18 14 45 1 17 -9 29 -11 29 -5 0 5 -4 10 -9 10 -5 0
-32 23 -59 50 -59 59 -83 118 -77 190 3 28 3 50 1 50 -2 0 -14 -24 -26 -52z"/>
<path d="M3658 3802 c3 -48 -1 -69 -22 -110 -23 -45 -97 -122 -118 -122 -4 0
-8 -5 -8 -10 0 -6 14 -4 34 4 30 13 36 13 47 0 6 -8 9 -23 6 -34 -3 -12 3 -30
14 -43 15 -18 18 -19 19 -5 0 9 16 49 35 90 20 40 38 90 41 111 6 31 11 37 30
37 34 0 54 44 31 67 -13 13 -20 14 -29 5 -6 -6 -8 -15 -4 -19 4 -4 11 -2 15 6
7 10 9 9 14 -3 3 -8 -1 -22 -9 -30 -21 -22 -49 -2 -63 43 -6 20 -16 44 -23 54
-11 15 -12 8 -10 -41z"/>
<path d="M2044 3820 c-60 -13 -75 -39 -21 -36 30 1 32 -1 33 -34 2 -56 3 -58
26 -80 15 -14 35 -20 67 -20 l46 1 -27 15 c-32 17 -46 57 -27 80 16 20 83 54
105 54 10 0 15 3 11 6 -3 4 -34 6 -68 6 -34 0 -74 4 -88 7 -14 4 -40 4 -57 1z"/>
<path d="M2890 3817 c-25 -4 -71 -6 -104 -4 l-58 3 53 -27 c96 -48 109 -87 41
-123 l-27 -15 46 -1 c68 0 94 24 94 87 l0 48 38 -1 c35 -1 37 0 22 16 -21 23
-50 28 -105 17z"/>
<path d="M3436 3478 c-37 -74 -43 -116 -33 -223 4 -43 35 -111 74 -163 44 -58
34 -135 -17 -142 -29 -4 -38 0 -43 21 -3 12 -10 18 -16 14 -6 -3 -11 0 -11 8
0 32 55 30 63 -1 3 -15 5 -15 12 2 20 47 -59 78 -89 34 -22 -31 -20 -45 9 -73
43 -44 114 -26 141 36 l17 37 30 -18 c31 -19 87 -95 87 -119 0 -25 -52 -96
-86 -119 l-33 -21 -11 34 c-28 85 -139 90 -164 8 -14 -45 64 -85 94 -48 14 17
10 47 -8 53 -7 2 -10 -2 -6 -11 7 -20 -20 -28 -42 -13 -17 13 -16 15 11 40 30
28 59 28 81 0 21 -26 9 -89 -25 -131 -29 -36 -71 -127 -71 -154 0 -5 6 -7 13
-3 8 6 8 3 -2 -9 -31 -39 0 -201 50 -259 l20 -23 -15 36 c-32 81 -36 171 -10
220 8 17 11 28 5 25 -23 -14 -10 13 15 33 46 36 139 21 133 -21 -4 -31 2 -40
21 -35 25 6 26 -5 3 -26 -28 -24 -56 -25 -87 -2 -19 14 -19 15 -1 35 24 26 1
26 -25 0 -27 -27 -25 -56 6 -85 31 -29 62 -31 105 -9 29 14 60 65 55 88 -2 6
-1 8 1 4 2 -3 16 0 30 7 23 12 30 12 56 -3 37 -22 47 -41 36 -69 -6 -17 -16
-23 -39 -23 -25 0 -30 4 -30 25 0 19 5 25 23 25 19 1 20 2 5 10 -35 21 -72
-17 -57 -57 9 -25 47 -38 84 -29 28 7 54 51 47 81 -6 25 -47 65 -70 66 -9 1
-24 2 -32 3 -8 1 -26 -2 -38 -6 -19 -7 -28 -3 -44 17 -37 48 -95 63 -157 41
l-40 -13 14 27 c28 55 95 89 180 92 24 1 32 5 26 11 -6 6 -33 9 -61 8 -27 -1
-50 1 -50 4 0 11 69 35 99 35 35 0 81 -19 81 -33 0 -6 -7 -18 -16 -28 -14 -16
-14 -18 4 -28 18 -9 26 -5 61 31 39 42 40 42 60 24 12 -11 21 -25 21 -32 0 -8
6 -11 15 -8 8 4 23 0 32 -7 15 -12 16 -12 11 3 -6 14 -4 15 20 2 15 -8 36 -14
46 -14 18 0 18 1 3 18 -8 9 -18 29 -22 43 -8 32 -75 71 -150 90 -27 6 -54 16
-60 20 -5 5 -28 9 -51 9 -46 0 -53 11 -46 75 3 29 6 31 39 27 23 -3 33 -1 29
6 -4 6 2 8 14 5 12 -3 20 0 20 6 0 7 4 10 9 7 14 -9 135 31 164 54 14 11 28
34 32 50 4 16 14 35 23 40 14 9 11 10 -13 7 -16 -2 -39 -8 -49 -12 -14 -6 -17
-5 -12 3 4 7 2 12 -3 12 -6 0 -11 -5 -11 -11 0 -6 -8 -8 -19 -4 -14 4 -21 0
-26 -15 -3 -11 -15 -24 -25 -30 -15 -8 -25 -3 -53 30 -36 43 -46 47 -65 28 -9
-9 -8 -16 5 -30 15 -17 15 -20 1 -34 -21 -21 -80 -28 -123 -14 -54 18 -45 38
15 32 61 -5 68 13 8 21 -92 12 -129 31 -154 78 -8 16 -25 36 -38 45 -14 8 -27
23 -30 32 -5 15 -5 15 6 1 37 -46 120 -74 171 -57 37 12 77 46 77 64 0 7 5 16
12 20 6 4 8 3 5 -3 -17 -27 87 -31 119 -5 36 28 44 53 29 89 -21 49 -84 61
-117 22 -26 -30 -5 -69 36 -68 29 0 29 1 9 9 -23 9 -31 44 -14 54 17 11 58
-12 64 -34 4 -16 -2 -29 -20 -46 -29 -27 -65 -31 -86 -9 -8 8 -17 11 -21 8 -3
-4 -6 4 -6 16 0 12 -13 36 -29 52 -38 38 -91 40 -126 4 -30 -29 -32 -58 -5
-85 26 -26 49 -26 25 0 -14 16 -16 23 -7 32 7 7 12 8 12 3 0 -5 6 -1 13 7 16
21 64 13 78 -13 8 -16 6 -19 -11 -19 -18 0 -25 -11 -21 -34 4 -18 -33 -46 -61
-46 -35 0 -83 24 -92 45 -3 9 -2 13 4 10 15 -9 12 2 -7 31 -22 35 -20 113 6
188 12 33 19 61 17 63 -2 3 -20 -28 -40 -69z m259 -658 c-3 -5 -14 -10 -23 -9
-14 0 -13 2 3 9 27 11 27 11 20 0z m-252 -265 c-3 -9 -8 -14 -10 -11 -3 3 -2
9 2 15 9 16 15 13 8 -4z"/>
<path d="M1523 3523 c42 -135 45 -173 18 -227 -18 -34 -18 -37 -3 -32 9 3 2
-7 -16 -24 -52 -48 -137 -33 -137 25 0 13 -6 20 -17 19 -21 -2 -24 19 -5 34
24 19 55 23 70 8 8 -8 18 -12 22 -8 4 4 5 -4 3 -18 -2 -14 -9 -24 -16 -22 -6
1 -12 -3 -12 -8 0 -16 26 -11 43 8 38 42 4 112 -54 112 -51 0 -108 -42 -109
-81 0 -17 -39 -39 -69 -39 -29 0 -63 39 -59 68 4 30 50 49 68 27 13 -16 1 -48
-16 -41 -7 3 -16 1 -19 -4 -4 -6 8 -10 25 -10 23 0 33 6 42 25 10 22 9 29 -9
46 -26 26 -51 30 -85 13 -49 -25 -47 -93 4 -128 30 -21 107 -21 115 0 4 12 9
9 20 -13 31 -65 127 -86 199 -44 29 17 34 18 18 4 -11 -10 -28 -31 -38 -46
-25 -41 -72 -66 -138 -73 -59 -7 -71 -27 -14 -24 60 4 70 1 57 -14 -19 -22
-94 -29 -135 -12 -41 17 -43 22 -19 48 15 17 15 20 3 28 -22 14 -24 13 -63
-30 -40 -42 -57 -43 -77 -5 -7 13 -17 22 -22 19 -5 -3 -15 0 -23 6 -11 9 -15
9 -15 1 0 -8 -5 -9 -19 -1 -11 5 -30 10 -42 10 -20 0 -21 -1 -6 -17 8 -10 17
-29 19 -43 2 -17 16 -32 46 -48 39 -22 128 -52 160 -54 6 -1 12 -5 12 -10 0
-4 19 -8 43 -8 l43 0 0 -50 0 -50 -43 0 c-26 0 -43 -5 -43 -12 0 -6 -2 -9 -5
-6 -10 10 -138 -32 -177 -57 -21 -14 -38 -33 -38 -43 0 -10 -7 -28 -16 -40
-14 -20 -14 -22 3 -22 10 0 29 7 41 16 20 14 22 14 22 -2 0 -13 3 -14 15 -4 8
6 18 9 24 6 5 -4 12 3 16 14 3 11 16 25 27 31 19 10 26 7 59 -32 35 -41 39
-43 55 -27 16 16 16 18 0 34 -15 15 -16 19 -3 31 20 21 88 27 131 13 49 -16
45 -32 -6 -30 -58 2 -68 1 -68 -8 0 -4 15 -9 33 -10 56 -3 113 -23 141 -48 14
-14 26 -29 26 -34 0 -5 18 -26 40 -46 22 -21 40 -41 40 -45 0 -4 -15 8 -33 26
-44 44 -103 60 -158 44 -41 -13 -79 -49 -79 -77 0 -14 -2 -14 -12 1 -31 40
-124 21 -147 -29 -16 -35 -14 -47 10 -78 36 -45 119 -27 119 27 0 25 -45 51
-67 38 -17 -10 -16 -10 4 -11 28 0 37 -14 24 -39 -7 -13 -18 -17 -31 -14 -49
13 -51 66 -3 95 26 15 32 15 58 2 17 -8 38 -31 48 -53 27 -60 92 -79 139 -41
14 11 28 29 31 40 6 24 -27 70 -51 70 -15 -1 -15 -2 1 -11 9 -5 17 -19 17 -30
0 -11 -4 -18 -9 -15 -5 3 -14 0 -20 -8 -16 -19 -60 -6 -79 22 -14 21 -13 22 9
20 19 -2 24 2 24 18 1 58 87 76 138 29 30 -29 34 -37 13 -29 -11 4 -10 -4 5
-33 23 -43 21 -109 -5 -184 -18 -52 -14 -61 10 -24 59 90 67 239 19 337 -15
30 -38 68 -51 84 -34 39 -31 112 5 130 27 14 61 7 61 -11 0 -8 8 -15 17 -17
15 -3 15 -4 0 -20 -19 -19 -57 -13 -57 9 0 8 -4 11 -10 8 -27 -17 6 -65 44
-65 13 0 30 8 39 18 50 55 -30 132 -99 95 -35 -17 -53 -42 -54 -70 l0 -22 -33
19 c-35 21 -72 65 -87 104 -7 21 -4 33 23 71 18 25 47 55 65 67 l32 20 0 -22
c0 -32 53 -80 88 -80 38 0 82 35 82 64 0 49 -78 77 -100 37 -10 -20 -4 -51 11
-51 4 0 6 6 3 14 -6 15 19 28 40 20 8 -3 17 -12 20 -20 3 -8 2 -13 -3 -10 -5
3 -16 -5 -24 -18 -12 -17 -22 -22 -41 -19 -24 5 -69 43 -50 43 6 0 8 15 6 33
-3 25 3 41 21 63 41 50 96 174 77 174 -6 0 -5 10 1 24 17 36 3 123 -31 195
-27 57 -49 83 -37 44z m-196 -709 c-3 -3 -12 -4 -19 -1 -8 3 -5 6 6 6 11 1 17
-2 13 -5z"/>
<path d="M1453 3512 c-25 -4 -53 -37 -53 -63 0 -9 9 -24 20 -34 22 -20 27 -6
8 25 -10 15 -10 25 -2 38 15 23 52 28 60 7 10 -24 -6 -33 -18 -10 -11 19 -11
19 -18 0 -14 -38 24 -59 53 -30 30 29 -4 74 -50 67z"/>
<path d="M3509 3507 c-29 -15 -33 -54 -7 -71 24 -15 59 17 40 36 -10 10 -15
10 -21 -1 -5 -7 -11 -9 -14 -4 -11 18 10 36 36 29 32 -8 40 -29 22 -63 -17
-32 -9 -46 11 -19 38 53 -11 120 -67 93z"/>
<path d="M2407 3376 c-229 -66 -359 -260 -344 -511 18 -293 228 -481 517 -462
101 7 167 29 237 80 92 68 110 103 118 222 4 55 9 103 12 108 2 4 0 7 -5 7 -4
0 -14 -28 -20 -62 -36 -194 -165 -307 -356 -313 -235 -8 -393 162 -401 434 -6
209 74 365 224 438 50 25 67 27 161 28 99 0 110 -2 170 -32 78 -38 109 -69
150 -148 l31 -60 -5 45 c-15 142 -17 149 -50 168 -81 48 -148 64 -271 68 -82
2 -135 -1 -168 -10z"/>
<path d="M961 2927 c-13 -6 -29 -20 -35 -30 -17 -28 34 -69 77 -61 47 8 119
42 113 53 -6 9 -108 51 -124 51 -4 0 -18 -6 -31 -13z"/>
<path d="M3957 2925 c-20 -8 -47 -21 -58 -29 -21 -14 -20 -15 22 -34 72 -31
81 -33 115 -22 52 18 57 66 8 89 -31 14 -39 13 -87 -4z"/>
<path d="M1410 2361 c-15 -29 -12 -49 10 -71 40 -40 115 -8 90 39 -18 34 -77
20 -63 -15 7 -19 23 -18 23 2 0 8 5 12 10 9 15 -9 12 -32 -6 -39 -35 -13 -75
40 -44 59 13 8 13 35 0 35 -5 0 -14 -9 -20 -19z"/>
<path d="M3565 2351 c8 -17 12 -36 9 -44 -6 -17 -39 -28 -60 -20 -16 6 -17 13
-5 31 7 11 9 11 14 -2 9 -22 22 -20 24 4 3 37 -60 37 -70 -1 -6 -22 26 -49 59
-49 43 0 72 68 42 98 -22 22 -29 13 -13 -17z"/>
<path d="M1364 2302 c2 -4 -11 -41 -30 -81 -33 -71 -42 -96 -48 -137 -2 -10
-9 -19 -17 -20 -30 -2 -35 -5 -46 -24 -7 -10 -10 -26 -7 -35 7 -17 44 -21 44
-4 0 6 -7 9 -15 5 -22 -8 -19 21 4 33 23 13 30 5 59 -61 12 -27 23 -48 25 -48
2 0 3 28 3 63 -1 50 4 71 26 108 27 46 90 109 108 109 6 0 10 4 10 9 0 6 -12
6 -30 -1 -36 -12 -64 4 -55 33 7 21 -10 59 -26 59 -6 0 -8 -4 -5 -8z"/>
<path d="M3610 2295 c-8 -10 -13 -30 -12 -45 4 -36 -9 -43 -52 -31 -35 9 -34
8 24 -45 69 -65 94 -118 89 -193 -2 -28 -1 -51 3 -51 4 0 15 23 25 51 21 59
49 81 69 54 16 -21 9 -36 -11 -28 -8 3 -15 0 -15 -7 0 -6 10 -10 23 -8 36 5
30 50 -10 67 -23 10 -33 22 -37 45 -3 17 -20 60 -37 96 -17 36 -34 76 -38 89
-6 22 -8 22 -21 6z"/>
<path d="M1608 2267 c-22 -5 -50 -22 -66 -41 -15 -17 -42 -38 -59 -45 -46 -19
-110 -88 -126 -135 -49 -144 98 -308 277 -309 81 -1 152 23 283 95 59 32 135
68 168 80 150 51 316 3 366 -105 23 -51 23 -69 5 -106 -29 -55 -98 -81 -148
-55 -79 41 -33 152 48 115 42 -19 28 -71 -19 -71 -6 0 -3 6 7 13 18 13 18 14
2 20 -37 14 -51 -24 -16 -43 17 -9 25 -6 45 14 39 40 11 86 -52 86 -44 0 -73
-30 -73 -74 0 -77 97 -114 174 -67 93 58 80 186 -27 260 -59 39 -111 54 -192
54 -95 0 -178 -23 -315 -87 -127 -60 -184 -80 -203 -73 -6 3 -2 6 10 6 12 1
25 6 29 13 5 7 3 8 -5 4 -20 -13 -156 -9 -182 4 -13 7 -32 19 -42 28 -16 14
-16 17 -1 33 14 15 14 21 4 34 -16 19 -25 19 -44 0 -16 -17 -12 -39 13 -69 27
-30 73 -49 141 -57 l65 -8 -70 3 c-47 2 -84 10 -111 24 -45 23 -100 80 -116
121 -27 70 4 161 74 212 l42 30 13 -26 c16 -29 53 -34 77 -9 18 17 21 28 6 19
-5 -3 -10 -1 -10 6 0 8 -4 8 -15 -1 -12 -10 -19 -10 -27 -2 -18 18 -3 25 47
24 99 -2 172 -82 151 -167 -7 -27 -66 -61 -91 -51 -8 3 -15 1 -15 -4 0 -10 49
-50 61 -50 5 0 20 17 34 39 29 42 38 101 23 140 -22 61 -100 110 -173 111 -33
1 -37 2 -22 11 55 32 175 -25 223 -107 29 -50 31 -102 4 -154 -27 -53 -12 -51
23 2 33 51 35 108 7 161 -11 20 -20 41 -20 45 0 4 20 22 45 40 49 34 62 69 23
56 -32 -10 -85 -7 -155 9 -40 9 -70 11 -95 4z"/>
<path d="M3320 2269 c-25 -4 -65 -12 -90 -17 -26 -5 -59 -5 -79 0 -18 5 -34 8
-36 6 -10 -12 21 -51 55 -68 22 -11 40 -22 40 -25 0 -2 -11 -25 -25 -51 -14
-26 -25 -59 -25 -73 1 -35 32 -101 60 -126 l22 -20 -20 40 c-30 58 -35 98 -16
145 33 81 152 154 221 135 26 -8 25 -9 -18 -16 -160 -25 -217 -150 -125 -272
13 -17 16 -17 45 -2 37 19 42 44 8 38 -29 -6 -87 46 -87 77 0 35 30 88 61 111
31 22 115 39 143 29 17 -6 17 -7 1 -20 -12 -10 -18 -11 -24 -2 -4 7 -11 8 -21
1 -13 -8 -12 -12 5 -25 26 -20 57 -14 70 13 11 22 12 22 41 4 133 -83 132
-248 -3 -332 -38 -24 -93 -41 -93 -30 0 5 13 11 29 14 34 7 91 61 91 87 0 23
-26 44 -45 36 -17 -6 -21 -46 -5 -46 16 0 12 -22 -7 -37 -10 -7 -29 -18 -43
-24 -28 -12 -163 -15 -181 -3 -8 4 -9 3 -5 -4 4 -7 19 -12 33 -12 15 0 24 -3
20 -6 -10 -10 -78 6 -72 16 3 6 -1 7 -9 4 -8 -3 -66 19 -128 49 -156 75 -212
90 -329 90 -192 -1 -335 -166 -242 -281 34 -42 81 -58 137 -48 96 18 92 156
-4 156 -43 0 -73 -27 -68 -61 5 -40 68 -59 81 -25 8 20 -8 37 -26 30 -22 -8
-22 -21 1 -28 10 -3 8 -4 -7 -3 -36 3 -49 31 -27 56 24 27 60 27 86 1 52 -52
1 -119 -85 -112 -54 5 -107 69 -99 121 15 90 113 163 235 174 62 6 169 -21
238 -59 235 -130 302 -152 408 -133 239 45 322 297 138 416 -28 18 -67 47 -88
65 -51 45 -83 56 -137 47z m88 -486 c-10 -2 -28 -2 -40 0 -13 2 -5 4 17 4 22
1 32 -1 23 -4z"/>
<path d="M2104 2125 c-37 -15 -57 -56 -44 -89 13 -35 -11 -54 -50 -39 -24 9
-28 8 -23 -4 10 -26 53 -33 163 -27 l109 7 -58 27 c-32 16 -62 33 -66 40 -12
20 4 59 33 74 16 9 21 16 12 16 -8 1 -22 3 -31 5 -8 1 -29 -3 -45 -10z"/>
<path d="M2816 2130 c-19 -6 -19 -7 1 -12 12 -3 29 -18 38 -32 17 -25 17 -27
-1 -48 -11 -11 -40 -31 -66 -43 l-48 -22 112 -7 c91 -5 115 -4 134 9 30 19 33
40 3 25 -39 -21 -54 -9 -54 44 0 40 -4 52 -25 67 -29 21 -67 29 -94 19z"/>
<path d="M2111 1899 c-108 -21 -232 -103 -247 -163 -6 -25 16 -66 36 -66 3 0
17 23 29 51 13 27 38 65 57 83 44 43 128 84 184 91 l45 5 -32 -15 c-95 -44
-105 -165 -15 -165 23 0 24 1 10 18 -26 29 6 80 62 97 23 7 24 6 11 -9 -13
-15 -13 -19 0 -26 7 -5 30 -6 49 -3 55 9 71 6 101 -23 30 -29 37 -62 17 -82
-9 -9 -9 -12 0 -12 16 0 32 34 32 70 0 65 -57 128 -135 149 -46 13 -140 13
-204 0z"/>
<path d="M2676 1900 c-49 -15 -96 -53 -116 -96 -26 -53 -25 -77 6 -111 l25
-28 -14 30 c-33 69 36 123 131 101 25 -6 33 -4 38 9 4 10 1 21 -7 26 -12 7
-11 9 1 9 18 0 59 -26 78 -48 16 -21 15 -37 -4 -56 -12 -12 -12 -16 -2 -17 47
-4 78 22 78 66 0 37 -34 79 -82 101 l-33 15 43 -6 c103 -12 206 -83 243 -169
13 -31 27 -56 31 -56 4 0 14 7 22 16 57 57 -56 167 -215 209 -59 16 -177 18
-223 5z"/>
<path d="M1316 1674 c-72 -73 -1 -235 123 -279 98 -34 187 -12 312 77 46 34
107 72 135 85 55 25 156 40 199 29 l28 -7 -22 -15 c-26 -19 -27 -55 -2 -78 23
-21 61 -13 61 12 0 13 -2 13 -14 -4 -15 -19 -15 -19 -36 2 -40 39 5 80 72 65
19 -5 61 -25 93 -46 61 -38 119 -62 145 -60 8 1 25 3 38 3 12 1 22 7 22 13 0
5 -4 7 -10 4 -19 -12 -95 18 -170 65 -134 87 -183 105 -280 105 -105 0 -157
-16 -333 -103 -117 -58 -139 -65 -194 -66 -74 -1 -107 18 -140 84 -30 57 -30
106 -3 115 29 9 53 -13 45 -43 -7 -27 11 -27 29 0 14 23 -18 68 -48 68 -13 0
-35 -12 -50 -26z m419 -174 c-40 -41 -124 -80 -188 -85 l-52 -5 50 18 c28 10
84 37 125 60 89 50 104 52 65 12z"/>
<path d="M3608 1688 c-21 -17 -27 -39 -16 -60 15 -29 33 -21 33 15 0 25 4 33
22 35 45 6 50 -51 10 -121 -34 -61 -68 -82 -135 -82 -50 0 -75 9 -198 67 -182
88 -251 109 -336 107 -83 -2 -145 -26 -265 -102 -88 -55 -163 -84 -186 -71 -8
5 -9 4 -2 -4 15 -16 61 -22 96 -12 18 5 62 28 99 50 86 52 125 63 159 47 31
-15 38 -39 16 -60 -18 -19 -42 -13 -48 11 -4 15 -5 15 -6 1 -1 -23 24 -42 47
-35 40 13 46 96 7 96 -9 0 -13 5 -10 10 10 15 115 12 176 -6 30 -9 79 -33 109
-53 30 -21 79 -54 109 -74 181 -125 396 -59 427 130 13 80 -57 151 -108 111z
m-264 -207 c21 -14 69 -36 105 -48 l66 -23 -50 5 c-57 6 -133 30 -155 48 -8 7
-28 28 -45 46 l-30 33 35 -17 c19 -10 52 -30 74 -44z"/>
<path d="M1877 1333 c-1 -1 -107 -3 -234 -4 -231 -3 -293 -15 -137 -26 44 -3
492 -7 997 -8 680 -2 934 1 981 9 35 7 71 11 80 10 9 -1 18 1 20 5 3 4 -77 8
-177 10 -190 4 -1527 7 -1530 4z"/>
<path d="M1220 1319 c-84 -6 -73 -10 48 -15 47 -1 82 1 82 7 0 5 -3 9 -7 10
-34 4 -58 3 -123 -2z"/>
<path d="M3664 1319 c-8 -14 10 -17 94 -14 96 3 123 15 36 16 -32 0 -74 2 -92
3 -18 1 -35 -1 -38 -5z"/>
<path d="M1451 1209 c-96 -18 -156 -64 -204 -153 -30 -56 -32 -222 -3 -276 49
-92 113 -141 208 -158 68 -13 124 -6 183 22 75 37 101 75 108 161 7 70 2 66
-22 -22 -33 -123 -199 -180 -321 -112 -112 63 -153 255 -86 394 40 80 101 120
193 124 85 4 165 -43 200 -117 12 -26 12 -25 8 18 -2 25 -4 51 -4 57 -1 15
-63 48 -106 57 -54 12 -109 13 -154 5z"/>
<path d="M2049 1148 c-14 -35 -65 -158 -114 -275 -81 -196 -91 -213 -122 -228
-18 -9 -33 -17 -33 -18 0 -1 36 -2 79 -2 77 0 79 1 60 18 -10 10 -19 21 -19
26 0 12 51 135 61 148 11 12 202 13 215 0 4 -4 20 -39 35 -78 l28 -71 -24 -22
-24 -22 90 2 c50 1 93 5 96 8 4 3 -3 6 -14 6 -12 0 -30 8 -41 18 -11 9 -68
134 -127 277 -58 143 -110 263 -114 268 -4 4 -18 -21 -32 -55z m73 -170 l45
-123 -46 -5 c-26 -3 -70 -4 -98 -2 l-51 4 14 41 c8 23 18 51 23 62 5 11 20 48
33 83 12 34 26 62 29 62 3 0 26 -55 51 -122z"/>
<path d="M2445 1199 c-16 -4 -22 -7 -13 -8 9 0 24 -8 32 -17 14 -13 16 -51 16
-255 0 -248 -4 -279 -40 -279 -11 0 -20 -3 -20 -7 0 -5 38 -8 85 -8 47 0 85 3
85 8 0 4 -6 7 -14 7 -40 0 -43 19 -43 285 l-1 256 71 -4 c64 -3 72 -6 98 -35
16 -18 30 -43 30 -57 4 -81 1 -95 -34 -130 -27 -27 -45 -35 -86 -41 -65 -8
-49 -24 25 -24 93 0 159 65 158 154 -1 66 -30 117 -79 140 -37 18 -212 27
-270 15z"/>
<path d="M2890 1198 c0 -5 6 -8 14 -8 8 0 21 -7 30 -15 12 -13 15 -54 15 -256
0 -249 -4 -279 -41 -279 -10 0 -18 -3 -18 -7 0 -9 158 -8 167 1 4 3 -3 6 -15
6 -12 0 -26 9 -32 19 -6 12 -10 116 -10 269 l0 249 69 -2 c75 -2 93 -11 118
-58 22 -44 13 -130 -17 -162 -22 -23 -78 -41 -122 -39 -10 1 -18 0 -18 -1 0
-1 17 -20 38 -42 20 -21 71 -77 112 -123 219 -247 261 -276 393 -271 37 1 27
16 -13 19 -18 1 -46 10 -63 19 -35 17 -194 173 -299 292 l-66 74 41 21 c22 12
50 33 60 48 21 28 34 111 23 151 -9 35 -64 86 -103 93 -48 9 -263 10 -263 2z"/>
<path d="M3427 1198 c-7 -5 -4 -8 9 -8 37 0 43 -40 42 -285 -1 -191 -3 -233
-16 -247 -8 -10 -22 -18 -30 -18 -9 0 -13 -3 -9 -6 10 -10 316 -9 325 2 12 13
53 116 48 121 -2 2 -13 -12 -24 -31 -32 -55 -62 -68 -158 -73 l-85 -3 3 122 3
123 67 3 c57 2 70 0 88 -18 11 -11 21 -20 23 -20 1 0 2 25 2 55 0 60 -5 67
-20 33 -9 -21 -18 -23 -87 -25 l-78 -2 0 128 0 128 88 1 c97 1 107 -2 121 -38
9 -22 10 -20 10 21 l1 46 -156 -1 c-86 -1 -161 -4 -167 -8z"/>
<path d="M1907 554 c-1 -1 -170 -4 -376 -7 -205 -3 -376 -9 -379 -12 -6 -6
-10 -5 148 -12 197 -9 2060 -12 2060 -3 0 31 -29 32 -741 34 -390 1 -711 1
-712 0z"/>
<path d="M3499 537 c8 -8 60 -12 159 -13 164 0 253 13 107 16 -49 1 -132 3
-184 5 -72 3 -91 1 -82 -8z"/>
<path d="M1152 418 c-16 -16 -15 -50 3 -74 8 -10 15 -14 15 -7 0 6 -4 15 -10
18 -15 9 -12 36 7 57 18 20 4 25 -15 6z"/>
<path d="M1190 426 c0 -2 7 -6 15 -10 8 -3 15 -1 15 4 0 6 -7 10 -15 10 -8 0
-15 -2 -15 -4z"/>
<path d="M1271 408 c-27 -68 -30 -78 -22 -78 5 0 12 13 16 30 4 16 11 33 17
36 7 5 9 -1 5 -15 -3 -13 -3 -20 1 -17 3 4 12 -4 19 -16 19 -35 14 1 -7 47
l-18 40 -11 -27z"/>
<path d="M1345 383 c1 -26 5 -48 10 -50 6 -2 9 18 7 47 -5 63 -17 66 -17 3z"/>
<path d="M1420 380 c0 -27 3 -50 8 -50 4 0 7 23 7 50 0 28 -3 50 -7 50 -5 0
-8 -22 -8 -50z"/>
<path d="M1470 430 c-5 -16 -4 -100 1 -100 11 0 15 53 8 80 -4 14 -8 23 -9 20z"/>
<path d="M1542 418 c-17 -17 -15 -63 5 -79 15 -13 15 -12 5 8 -16 29 -15 49 4
67 8 9 12 16 7 16 -5 0 -14 -5 -21 -12z"/>
<path d="M1604 407 c22 -33 22 -33 2 -56 -16 -18 -17 -21 -3 -16 32 13 33 77
2 89 -13 5 -13 3 -1 -17z"/>
<path d="M1653 380 c0 -30 2 -43 4 -27 2 15 2 39 0 55 -2 15 -4 2 -4 -28z"/>
<path d="M1680 421 c12 -8 12 -15 4 -28 -14 -23 -8 -40 19 -55 21 -10 21 -10
7 7 -8 10 -15 32 -15 48 0 18 -6 32 -15 34 -13 4 -13 3 0 -6z"/>
<path d="M1812 410 c0 -14 2 -19 5 -12 2 6 2 18 0 25 -3 6 -5 1 -5 -13z"/>
<path d="M1849 423 c-4 -49 -3 -93 4 -93 4 0 7 23 7 50 0 28 -2 50 -5 50 -3 0
-5 -3 -6 -7z"/>
<path d="M2029 428 c-5 -12 -4 -98 1 -98 3 0 7 23 7 50 1 41 -2 62 -8 48z"/>
<path d="M2058 418 c8 -8 8 -17 0 -32 -9 -19 -9 -20 6 -5 17 16 13 49 -7 49
-8 0 -7 -4 1 -12z"/>
<path d="M2100 380 c0 -27 4 -50 10 -50 5 0 7 6 4 14 -3 8 -1 17 5 21 6 3 14
0 17 -9 3 -8 12 -17 20 -20 13 -5 13 -3 0 16 -11 15 -12 25 -5 34 7 9 7 18 -1
31 -10 16 -11 16 -6 1 3 -10 -3 -25 -12 -35 -16 -16 -17 -15 -20 6 -2 13 2 28
10 32 10 7 9 9 -4 9 -15 0 -18 -9 -18 -50z"/>
<path d="M2192 418 c-28 -28 -3 -98 30 -85 8 4 7 6 -4 6 -23 1 -34 46 -18 66
16 19 8 29 -8 13z"/>
<path d="M2250 410 c19 -19 18 -40 -3 -67 -14 -18 -1 -16 17 3 9 8 16 24 16
34 0 19 -25 50 -41 50 -5 0 0 -9 11 -20z"/>
<path d="M2299 428 c-5 -20 -2 -98 4 -98 4 0 7 23 7 50 0 28 -2 50 -5 50 -3 0
-5 -1 -6 -2z"/>
<path d="M2370 380 c0 -27 3 -50 8 -50 4 0 7 23 8 50 0 28 -3 50 -8 50 -4 0
-8 -22 -8 -50z"/>
<path d="M2443 413 c-4 -10 2 -23 15 -34 29 -23 29 -43 1 -36 -16 4 -19 3 -11
-5 13 -13 42 -3 42 15 0 8 -9 22 -20 32 -25 22 -25 32 -2 38 16 4 16 5 -1 6
-10 0 -20 -6 -24 -16z"/>
<path d="M2506 415 c-3 -8 4 -24 16 -34 13 -13 18 -26 14 -37 -5 -14 -4 -15 8
-5 18 15 11 38 -15 51 -10 6 -16 17 -13 25 4 8 4 15 1 15 -3 0 -7 -7 -11 -15z"/>
<path d="M2579 418 c-4 -68 -3 -88 4 -88 4 0 7 23 7 50 0 28 -2 50 -5 50 -3 0
-5 -6 -6 -12z"/>
<path d="M2620 405 c-10 -19 -11 -30 -2 -50 6 -14 16 -25 22 -25 6 0 3 11 -6
25 -15 23 -15 27 0 50 9 14 13 25 8 25 -5 0 -15 -11 -22 -25z"/>
<path d="M2684 414 c19 -18 20 -38 4 -67 -10 -20 -10 -21 5 -8 29 23 17 91
-16 91 -5 0 -1 -7 7 -16z"/>
<path d="M2855 389 c-11 -24 -21 -47 -23 -51 -2 -5 1 -8 7 -8 6 0 11 7 11 15
0 8 4 15 10 15 5 0 7 6 4 14 -3 8 -1 17 5 21 6 3 11 -2 11 -12 0 -11 7 -28 15
-39 20 -27 18 0 -4 50 l-17 40 -19 -45z"/>
<path d="M2941 383 c0 -29 3 -53 7 -53 4 0 6 17 4 38 -6 64 -10 69 -11 15z"/>
<path d="M3053 380 c0 -30 2 -43 4 -27 2 15 2 39 0 55 -2 15 -4 2 -4 -28z"/>
<path d="M3080 421 c12 -8 13 -14 4 -29 -10 -15 -8 -23 7 -43 10 -13 19 -19
19 -13 0 6 -3 14 -7 18 -5 4 -8 22 -8 38 0 19 -6 33 -15 35 -13 4 -13 3 0 -6z"/>
<path d="M3135 380 c0 -28 3 -50 8 -50 4 0 7 23 7 50 0 28 -3 50 -7 50 -5 0
-8 -23 -8 -50z"/>
<path d="M3223 380 c-12 -28 -18 -50 -14 -50 4 0 13 16 20 36 9 26 16 33 21
23 5 -7 6 -17 4 -21 -3 -4 0 -8 5 -8 6 0 11 -7 11 -15 0 -8 4 -15 10 -15 7 0
-22 86 -34 97 -1 1 -12 -20 -23 -47z"/>
<path d="M3310 380 c0 -27 3 -50 8 -50 4 0 7 23 7 50 0 28 -3 50 -7 50 -5 0
-8 -22 -8 -50z"/>
<path d="M3420 380 c0 -46 2 -50 23 -49 16 1 18 2 5 6 -21 5 -23 23 -5 42 10
11 9 12 -2 6 -11 -6 -13 -2 -9 19 3 14 1 26 -3 26 -5 0 -9 -22 -9 -50z"/>
<path d="M3493 414 c-3 -9 4 -24 16 -36 12 -11 20 -27 17 -35 -3 -8 -1 -11 4
-8 16 10 12 30 -10 50 -26 23 -25 33 3 38 l22 4 -23 2 c-12 0 -25 -6 -29 -15z"/>
<path d="M3580 382 c0 -29 3 -52 8 -52 9 0 8 87 -1 96 -4 4 -7 -16 -7 -44z"/>
<path d="M3657 410 c-3 -11 -1 -18 3 -15 5 3 14 -11 21 -30 7 -19 17 -35 21
-35 4 0 8 2 8 5 0 7 -42 95 -45 95 -1 0 -5 -9 -8 -20z"/>
<path d="M3736 418 c5 -7 7 -29 5 -50 -1 -21 1 -38 6 -38 5 0 9 23 9 50 1 37
-2 50 -13 50 -9 0 -11 -5 -7 -12z"/>
<path d="M3809 428 c-6 -24 -1 -98 6 -98 6 0 10 23 10 50 0 28 -3 50 -7 50 -5
0 -8 -1 -9 -2z"/>
<path d="M1733 405 c0 -8 3 -13 6 -10 2 3 22 -11 43 -32 l38 -37 0 29 c0 19
-3 25 -8 17 -6 -9 -16 -4 -37 18 -32 34 -42 37 -42 15z"/>
<path d="M1905 383 c-10 -21 -20 -41 -22 -45 -2 -5 1 -8 6 -8 6 0 11 7 11 15
0 8 4 15 10 15 5 0 7 6 4 14 -3 8 -1 17 5 21 10 5 15 -7 12 -27 0 -5 4 -8 9
-8 6 0 10 -7 10 -15 0 -8 4 -15 9 -15 10 0 -14 67 -29 83 -4 5 -15 -9 -25 -30z"/>
<path d="M2730 404 c0 -8 4 -13 8 -10 5 3 22 -8 37 -24 16 -17 31 -30 34 -30
3 0 6 16 6 34 0 19 -2 33 -5 30 -5 -5 -6 -10 -9 -35 0 -6 -13 3 -27 20 -28 34
-44 39 -44 15z"/>
<path d="M3636 364 c-11 -28 -6 -34 12 -16 11 9 17 20 15 25 -7 12 -21 8 -27
-9z"/>
<path d="M1734 356 c1 -8 5 -18 8 -22 4 -3 5 1 4 10 -1 8 -5 18 -8 22 -4 3 -5
-1 -4 -10z"/>
<path d="M1205 340 c-3 -6 1 -7 9 -4 18 7 21 14 7 14 -6 0 -13 -4 -16 -10z"/>
<path d="M2500 340 c0 -5 5 -10 11 -10 5 0 7 5 4 10 -3 6 -8 10 -11 10 -2 0
-4 -4 -4 -10z"/>
<path d="M3490 340 c0 -5 5 -10 11 -10 5 0 7 5 4 10 -3 6 -8 10 -11 10 -2 0
-4 -4 -4 -10z"/>
</g>
</svg>
